<svg width="25" height="25" viewBox="0 0 25 25" fill="none" xmlns="http://www.w3.org/2000/svg">
<g clip-path="url(#clip0)">
<path d="M0 3.48837C0 1.56868 1.56868 0 3.48837 0C5.40806 0 6.97674 1.56868 6.97674 3.48837C6.97674 5.40806 5.40806 6.97674 3.48837 6.97674C1.56868 6.97674 0 5.40806 0 3.48837Z" fill="#E67765"/>
<path d="M14.5349 9.2569C15.4822 8.34864 16.7457 7.55814 18.6047 7.55814C20.9004 7.55814 22.5654 8.19912 23.601 9.41134C24.6367 10.6235 25 12.3061 25 14.2442V24.4186C25 24.723 24.723 25 24.4186 25H19.4767C19.1723 25 18.8954 24.723 18.8953 24.4186V15.6977C18.8953 14.9619 18.6634 14.2645 18.323 13.79C17.9826 13.3154 17.5711 13.0814 17.1512 13.0814H16.5698C16.1498 13.0814 15.7383 13.3154 15.3979 13.79C15.0575 14.2645 14.8256 14.9619 14.8256 15.6977V24.4186C14.8256 24.723 14.5486 25 14.2442 25H9.30233C8.99792 25 8.72096 24.723 8.72093 24.4186V8.72093C8.72096 8.41652 8.99792 8.13957 9.30233 8.13953H13.9535C14.2579 8.13957 14.5349 8.41652 14.5349 8.72093V9.2569Z" fill="#E67765"/>
<path d="M0.581395 8.72093C0.580158 8.43386 0.82248 8.16647 1.10828 8.13953H6.10465C6.40906 8.13957 6.68602 8.41652 6.68605 8.72093V24.4186C6.68602 24.723 6.40906 25 6.10465 25H1.16279C0.858381 25 0.581426 24.723 0.581395 24.4186V8.72093Z" fill="#E67765"/>
</g>
</svg>
