<svg width="25" height="25" viewBox="0 0 25 25" fill="none" xmlns="http://www.w3.org/2000/svg">
<g clip-path="url(#clip0_0_1)">
<path d="M20 0H4.99996C3.67427 0.00146481 2.40339 0.528603 1.4661 1.4661C0.528593 2.40339 0.00144644 3.67427 0 4.99996V20C0.00146481 21.3257 0.528603 22.5966 1.4661 23.5339C2.40339 24.4714 3.67427 24.9986 4.99996 25H20C21.3257 24.9987 22.5966 24.4714 23.5341 23.5341C24.4714 22.5966 24.9988 21.3257 25 20V4.99996C24.9987 3.67427 24.4714 2.40339 23.5341 1.46588C22.5966 0.528592 21.3257 0.00123215 20 0V0ZM22.5001 19.9999C22.4993 20.6627 22.2356 21.2982 21.7671 21.7669C21.2983 22.2355 20.6628 22.4992 20 22.5H4.99996C4.33722 22.4994 3.7017 22.2357 3.23295 21.7669C2.76419 21.2982 2.50051 20.6627 2.49987 19.9999V4.99985C2.5005 4.33711 2.76417 3.70159 3.23295 3.23284C3.70172 2.76409 4.33722 2.50041 4.99996 2.49976H20C20.6628 2.5006 21.2983 2.76427 21.7671 3.23284C22.2356 3.70159 22.4993 4.33711 22.5001 4.99985V19.9999Z" fill="#E67765"/>
<path d="M12.5 6.92318C11.0209 6.92318 9.60252 7.51103 8.55685 8.55691C7.51113 9.60279 6.92377 11.0212 6.92399 12.5003C6.92399 13.9793 7.51162 15.3977 8.5575 16.4434C9.60338 17.4891 11.0218 18.0767 12.5009 18.0765C13.9799 18.0765 15.3983 17.4889 16.444 16.4432C17.4899 15.3973 18.0773 13.9789 18.0773 12.4998C18.0756 11.0212 17.4876 9.60365 16.4419 8.55814C15.3962 7.51263 13.9787 6.92463 12.5 6.92313V6.92318ZM12.5 15.5766C11.6841 15.5764 10.9016 15.2521 10.3247 14.6751C9.74775 14.098 9.42386 13.3153 9.42386 12.4994C9.42407 11.6835 9.74822 10.9008 10.3254 10.3241C10.9023 9.74716 11.685 9.42305 12.5009 9.42305C13.3168 9.42326 14.0994 9.74742 14.6764 10.3243C15.2533 10.9013 15.5774 11.6839 15.5774 12.4998C15.5766 13.3157 15.252 14.0978 14.6751 14.6747C14.0981 15.2515 13.3159 15.5758 12.4999 15.5767L12.5 15.5766Z" fill="#E67765"/>
</g>
<defs>
<clipPath id="clip0_0_1">
<rect width="25" height="25" fill="white"/>
</clipPath>
</defs>
</svg>
