<svg width="151" height="119" viewBox="0 0 151 119" fill="none" xmlns="http://www.w3.org/2000/svg">
<path fill-rule="evenodd" clip-rule="evenodd" d="M73.634 64.6241C75.332 64.6241 77.342 63.2651 77.654 60.7631H78.731L78.422 66.0161H62.045V65.0891C63.281 64.7801 63.902 64.3151 63.902 62.6171V47.7851C63.902 46.0841 63.281 45.6221 62.045 45.3131V44.3861H70.697V45.3131C69.461 45.6221 68.846 46.0841 68.846 47.7851V64.6241H73.634Z" fill="#E67765"/>
<path fill-rule="evenodd" clip-rule="evenodd" d="M87.4502 59.6819L85.9982 59.9909C84.9422 60.2069 84.4202 60.7319 84.6032 61.9979C84.6962 62.6189 85.1582 63.2369 85.9982 63.2369C86.6132 63.2369 86.9522 62.9879 87.3872 62.6189L87.4502 59.6819ZM92.3312 61.6889C92.2652 64.1609 93.1052 64.0049 94.4942 63.6989V64.4729C92.9462 65.7089 92.0192 66.3239 90.1682 66.3239C88.0082 66.3239 87.3872 65.0909 87.3872 63.8549H87.3272C85.6232 65.6159 84.9122 66.3239 83.0612 66.3239C81.2402 66.3239 79.6622 64.7189 79.6622 62.6189C79.6622 60.7019 81.2402 59.4659 83.6762 59.0639L87.4802 58.4459L87.5372 55.8209C87.6032 53.3489 87.3872 52.1129 85.5332 52.1129C82.7522 52.1129 82.9982 54.4289 83.8352 55.2029C85.1312 56.4059 80.7752 57.7979 80.2772 56.7449C79.3832 54.7979 82.7522 50.2559 87.3872 50.2559C90.4742 50.2559 92.5472 51.8009 92.4842 54.4289L92.3312 61.6889Z" fill="#E67765"/>
<path fill-rule="evenodd" clip-rule="evenodd" d="M105.925 53.8106C105.925 52.2656 105.619 51.8006 104.074 51.4946V50.5676H110.869V61.0706C110.869 63.2366 111.028 63.8546 113.032 63.6986V64.7786L106.237 66.3236H105.925V63.0806H105.865C104.689 65.0906 102.778 66.3236 100.522 66.3236C98.4491 66.3236 96.3521 65.0906 96.3521 61.6886V53.8106C96.3521 52.2656 96.0401 51.8006 94.8041 51.4946V50.5676H101.29V61.3796C101.29 62.7716 102.223 63.2366 103.147 63.2366C104.104 63.2366 104.848 62.7716 105.925 61.8446V53.8106Z" fill="#E67765"/>
<path fill-rule="evenodd" clip-rule="evenodd" d="M120.45 62.6174C120.45 64.3154 121.071 64.7804 122.307 65.0894V66.0164H113.652V65.0894C114.888 64.7804 115.512 64.3154 115.512 62.6174V54.8924C115.512 53.3474 114.888 52.8854 113.964 52.5734V51.6494L120.297 50.2574H120.543L120.45 53.8094H120.513C121.593 51.6494 122.619 50.2574 124.47 50.2574C127.5 50.2574 126.783 55.3544 124.317 54.5834C122.307 53.9654 121.224 54.4304 120.45 55.0484V62.6174Z" fill="#E67765"/>
<path fill-rule="evenodd" clip-rule="evenodd" d="M134.888 59.6819L133.436 59.9909C132.38 60.2069 131.858 60.7319 132.041 61.9979C132.134 62.6189 132.596 63.2369 133.436 63.2369C134.051 63.2369 134.39 62.9879 134.825 62.6189L134.888 59.6819ZM139.769 61.6889C139.703 64.1609 140.543 64.0049 141.932 63.6989V64.4729C140.384 65.7089 139.457 66.3239 137.606 66.3239C135.446 66.3239 134.825 65.0909 134.825 63.8549H134.765C133.061 65.6159 132.35 66.3239 130.499 66.3239C128.678 66.3239 127.1 64.7189 127.1 62.6189C127.1 60.7019 128.678 59.4659 131.114 59.0639L134.918 58.4459L134.975 55.8209C135.041 53.3489 134.825 52.1129 132.971 52.1129C130.19 52.1129 130.436 54.4289 131.273 55.2029C132.569 56.4059 128.213 57.7979 127.715 56.7449C126.821 54.7979 130.19 50.2559 134.825 50.2559C137.912 50.2559 139.985 51.8009 139.922 54.4289L139.769 61.6889Z" fill="#E67765"/>
<path fill-rule="evenodd" clip-rule="evenodd" d="M71.6243 94.5656C76.0133 94.5656 77.8073 90.0236 77.8073 85.1426C77.8073 79.4246 75.8903 75.7196 71.3123 75.7196H68.8463V94.5656H71.6243ZM62.0453 95.9576V95.0306C63.2813 94.7216 63.9023 94.2566 63.9023 92.5586V77.7266C63.9023 76.0256 63.2813 75.5636 62.0453 75.2546V74.3276H71.6243C78.2693 74.3276 83.0573 78.3446 83.0573 85.1426C83.0573 91.5056 78.2693 95.9576 71.6243 95.9576H62.0453Z" fill="#222121"/>
<path fill-rule="evenodd" clip-rule="evenodd" d="M92.3957 89.6231L90.9437 89.9321C89.8877 90.1481 89.3657 90.6731 89.5487 91.9391C89.6417 92.5601 90.1037 93.1781 90.9437 93.1781C91.5587 93.1781 91.8977 92.9291 92.3327 92.5601L92.3957 89.6231ZM97.2767 91.6301C97.2107 94.1021 98.0507 93.9461 99.4397 93.6401V94.4141C97.8917 95.6501 96.9647 96.2651 95.1137 96.2651C92.9537 96.2651 92.3327 95.0321 92.3327 93.7961H92.2727C90.5687 95.5571 89.8577 96.2651 88.0067 96.2651C86.1857 96.2651 84.6077 94.6601 84.6077 92.5601C84.6077 90.6431 86.1857 89.4071 88.6217 89.0051L92.4257 88.3871L92.4827 85.7621C92.5487 83.2901 92.3327 82.0541 90.4787 82.0541C87.6977 82.0541 87.9437 84.3701 88.7807 85.1441C90.0767 86.3471 85.7207 87.7391 85.2227 86.6861C84.3287 84.7391 87.6977 80.1971 92.3327 80.1971C95.4197 80.1971 97.4927 81.7421 97.4297 84.3701L97.2767 91.6301Z" fill="#222121"/>
<path fill-rule="evenodd" clip-rule="evenodd" d="M106.857 92.5589C106.857 94.2569 107.472 94.7219 108.708 95.0309V95.9579H100.059V95.0309C101.295 94.7219 101.913 94.2569 101.913 92.5589V84.8339C101.913 83.2889 101.295 82.8269 100.365 82.5149V81.5909L106.704 80.1989H106.95L106.857 83.7509H106.917C108 81.5909 109.02 80.1989 110.871 80.1989C113.901 80.1989 113.19 85.2959 110.718 84.5249C108.708 83.9069 107.631 84.3719 106.857 84.9899V92.5589Z" fill="#222121"/>
<path fill-rule="evenodd" clip-rule="evenodd" d="M123.392 85.1438C122.465 82.6718 121.382 81.7418 119.684 81.7418C118.91 81.7418 117.983 82.2068 117.983 83.4458C117.983 84.6788 118.94 85.1738 119.993 85.6058C124.007 87.3068 125.396 88.5428 125.396 91.3238C125.396 94.2578 122.771 96.2648 119.219 96.2648C117.644 96.2648 115.511 95.8028 114.275 95.1848L113.963 91.0148H115.049C115.973 94.5668 117.983 94.7198 118.91 94.7198C119.9 94.7198 120.761 94.1018 120.761 92.7128C120.761 91.9418 120.485 91.0148 117.983 89.9318C114.896 88.6028 113.66 87.3068 113.66 84.6788C113.66 82.2068 115.511 80.1998 119.531 80.1998C120.977 80.1998 122.93 80.5718 124.166 81.1568L124.469 85.1438H123.392Z" fill="#222121"/>
<path fill-rule="evenodd" clip-rule="evenodd" d="M133.991 75.0392C133.991 76.6142 132.689 77.8802 131.114 77.8802C129.545 77.8802 128.273 76.6142 128.273 75.0392C128.273 73.4642 129.545 72.1652 131.114 72.1652C132.689 72.1652 133.991 73.4642 133.991 75.0392ZM133.586 92.5592C133.586 94.2572 134.207 94.7222 135.443 95.0312V95.9582H126.791V95.0312C128.027 94.7222 128.648 94.2572 128.648 92.5592V84.8342C128.648 83.2892 128.027 82.8272 127.1 82.5152V81.5912L133.34 80.1992H133.586V92.5592Z" fill="#222121"/>
<path fill-rule="evenodd" clip-rule="evenodd" d="M148.171 75.6251C150.211 74.1431 147.187 71.8541 145.981 73.7081L142.951 78.3761L143.572 78.9611L148.171 75.6251ZM145.792 85.4501C146.566 82.6721 145.33 81.7421 144.094 81.7421C142.336 81.7421 141.346 83.0411 141.034 85.4501H145.792ZM144.25 80.1971C147.802 80.1971 151.018 81.8981 150.088 87.1511H140.941C140.941 91.3211 143.32 92.7131 145.639 92.7131C147.49 92.7131 148.729 92.2481 150.274 91.3211V93.4841C149.659 94.1021 147.802 96.2651 143.941 96.2651C138.844 96.2651 136.06 92.5601 136.06 88.3871C136.06 83.1341 140.383 80.1971 144.25 80.1971Z" fill="#222121"/>
<path fill-rule="evenodd" clip-rule="evenodd" d="M68.8352 35.951C72.3872 35.951 73.9052 32.891 73.9052 29.81C73.9052 26.201 72.3062 23.669 68.6432 23.669H66.3002V35.951H68.8352ZM62.9852 36.653V36.26C64.5452 36.065 64.7402 35.774 64.7402 34.7V24.95C64.7402 23.879 64.5452 23.585 62.9852 23.393V23H68.8352C73.0262 23 75.6602 25.535 75.6602 29.825C75.6602 33.839 73.0262 36.653 68.8352 36.653H62.9852Z" fill="#E67765"/>
<path fill-rule="evenodd" clip-rule="evenodd" d="M80.534 29.531V34.7C80.534 35.774 80.729 36.065 82.289 36.26V36.65H77.219V36.26C78.779 36.065 78.974 35.774 78.974 34.7V29.432C78.974 28.46 78.779 28.166 77.414 27.974V27.581L80.438 26.702H80.591L80.534 28.946H80.573C81.317 27.875 82.484 26.702 83.654 26.702C85.313 26.702 84.785 28.904 83.753 28.46C82.619 27.974 81.509 28.46 80.534 29.531Z" fill="#E67765"/>
<path fill-rule="evenodd" clip-rule="evenodd" d="M89.4056 35.6741C89.4056 36.3191 88.8806 36.8441 88.2356 36.8441C87.5906 36.8441 87.0656 36.3191 87.0656 35.6741C87.0656 35.0351 87.5906 34.5071 88.2356 34.5071C88.8806 34.5071 89.4056 35.0351 89.4056 35.6741Z" fill="#E67765"/>
<path fill-rule="evenodd" clip-rule="evenodd" d="M97.9856 29.8253C97.7936 28.2653 96.6416 27.2873 95.4506 27.2873C94.2806 27.2873 93.5966 27.8753 93.5966 28.8473C93.5966 30.1193 94.7696 30.5063 95.8406 30.8963C97.2836 31.4243 98.8646 32.1623 98.8646 33.9203C98.8646 35.7713 97.2056 36.8453 95.3546 36.8453C94.3586 36.8453 93.2066 36.5513 92.4266 36.1643L92.2346 33.5273H92.7206C92.9186 35.7713 94.3586 36.2603 95.3546 36.2603C96.5456 36.2603 97.3016 35.4803 97.3016 34.4063C97.3016 33.1403 96.0746 32.7083 94.9616 32.2613C93.4616 31.6583 92.2346 30.9983 92.2346 29.3393C92.2346 27.7733 93.5396 26.7023 95.5496 26.7023C96.4646 26.7023 97.4996 26.9363 98.2796 27.3113L98.4746 29.8253H97.9856Z" fill="#E67765"/>
<path fill-rule="evenodd" clip-rule="evenodd" d="M106.37 29.8253C106.178 28.2653 105.026 27.2873 103.835 27.2873C102.665 27.2873 101.981 27.8753 101.981 28.8473C101.981 30.1193 103.154 30.5063 104.225 30.8963C105.668 31.4243 107.249 32.1623 107.249 33.9203C107.249 35.7713 105.59 36.8453 103.739 36.8453C102.743 36.8453 101.591 36.5513 100.811 36.1643L100.619 33.5273H101.105C101.303 35.7713 102.743 36.2603 103.739 36.2603C104.93 36.2603 105.686 35.4803 105.686 34.4063C105.686 33.1403 104.459 32.7083 103.346 32.2613C101.846 31.6583 100.619 30.9983 100.619 29.3393C100.619 27.7733 101.924 26.7023 103.934 26.7023C104.849 26.7023 105.884 26.9363 106.664 27.3113L106.859 29.8253H106.37Z" fill="#E67765"/>
<path fill-rule="evenodd" clip-rule="evenodd" d="M114.21 32.3624L111.732 32.9414C110.76 33.1754 110.328 33.7634 110.445 34.5644C110.562 35.4224 111.108 35.7734 111.636 35.7734C112.515 35.7734 113.079 35.5544 114.168 34.7984L114.21 32.3624ZM115.731 34.1144C115.692 35.6744 116.412 35.5784 117.681 35.3804V35.6744C116.511 36.4514 115.926 36.8444 115.341 36.8444C114.366 36.8444 114.168 36.0644 114.168 35.2874H114.132C113.037 36.2594 112.221 36.8444 111.048 36.8444C109.899 36.8444 108.903 35.8304 108.903 34.5074C108.903 33.2954 109.881 32.6324 111.441 32.3624L114.228 31.8704L114.27 29.8244C114.306 28.2674 113.391 27.4874 112.221 27.4874C110.466 27.4874 110.232 28.9454 110.76 29.4314C111.576 30.1934 109.608 31.0724 109.293 30.4124C108.729 29.1794 110.466 26.7014 113.391 26.7014C114.951 26.7014 115.869 27.6794 115.827 29.3384L115.731 34.1144Z" fill="#E67765"/>
<path fill-rule="evenodd" clip-rule="evenodd" d="M40.2873 73.1679C39.0873 81.3939 33.1563 87.5829 25.1613 88.8369V73.6119C25.1613 70.4619 20.2743 70.4619 20.2743 73.6119V88.9599C12.2223 87.9879 6.17127 81.1389 5.00727 73.1679C4.55427 70.0629 -0.152734 71.3889 0.297266 74.4759C1.81827 84.8829 10.1073 92.5299 20.2743 93.7869V116.212C20.2743 119.362 25.1613 119.362 25.1613 116.212V93.8649C35.2383 92.8599 43.5423 84.4659 44.9973 74.4759C45.4503 71.3889 40.7373 70.0629 40.2873 73.1679Z" fill="#1A1919"/>
<path fill-rule="evenodd" clip-rule="evenodd" d="M29.1369 5.48607C32.7729 1.99707 33.9129 8.70807 33.4779 11.6451C32.5599 17.8821 29.3829 23.8701 25.2579 28.8291C25.2639 27.0861 25.2639 25.3341 25.2579 23.5971C25.2369 17.8971 24.6129 9.80907 29.1369 5.48607ZM44.0769 63.6951C41.1999 56.0421 34.5699 51.1701 26.3649 50.9211C25.9509 50.9031 25.5429 50.9211 25.1379 50.9361C25.1709 46.6641 25.2009 42.3891 25.2219 38.1171L25.2309 36.1731C25.4649 35.9331 25.6989 35.6961 25.9329 35.4561C31.3929 29.7741 36.0519 22.7661 37.8579 15.0141C38.8719 10.6761 38.8599 5.36007 35.6079 1.93707C32.5539 -1.28193 27.5649 -0.150934 24.8769 2.85807C20.3889 7.87707 20.2869 16.0881 20.3619 22.3761C20.4099 26.2971 20.4069 30.2301 20.3889 34.1541C12.1659 42.5691 2.36488 51.4521 0.054877 63.5511C0.048877 63.5991 0.036877 63.6471 0.033877 63.6951C-0.443123 66.7791 4.26688 68.1021 4.74688 64.9941C6.22288 55.4421 13.4559 47.8431 20.3499 41.0361C20.3139 44.6541 20.2809 48.2781 20.2539 51.8991C14.9169 53.8101 10.6659 58.3131 8.64988 63.6951C7.54288 66.6531 12.2679 67.9191 13.3629 64.9941C14.7279 61.3641 17.2449 58.8441 20.2089 57.4191C20.1969 59.7261 20.1819 62.0361 20.1609 64.3431C20.1369 67.4961 25.0239 67.4961 25.0539 64.3431C25.0749 61.5891 25.0839 58.8321 25.1049 56.0781C30.8829 55.5771 36.9459 58.5441 39.3609 64.9941C40.4559 67.9191 45.1869 66.6531 44.0769 63.6951Z" fill="#E67765"/>
</svg>
